<?xml version="1.0" standalone="no"?>
<!DOCTYPE svg PUBLIC "-//W3C//DTD SVG 20010904//EN"
 "http://www.w3.org/TR/2001/REC-SVG-20010904/DTD/svg10.dtd">
<svg version="1.0" xmlns="http://www.w3.org/2000/svg"
 width="329.000000pt" height="287.000000pt" viewBox="0 0 329.000000 287.000000"
 preserveAspectRatio="xMidYMid meet">

<g transform="translate(0.000000,287.000000) scale(0.100000,-0.100000)"
fill="#000000" stroke="none">
<path d="M891 2485 c-325 -74 -553 -379 -552 -740 0 -292 129 -569 398 -855
86 -92 246 -230 267 -230 45 0 116 186 116 306 0 123 -69 230 -175 269 -168
62 -210 80 -239 106 -38 33 -87 134 -94 194 l-4 41 62 33 c81 43 129 87 151
137 31 70 56 83 208 115 149 31 195 78 189 196 l-3 64 35 -6 c66 -12 172 -77
247 -152 40 -39 73 -78 73 -85 0 -8 -32 -30 -72 -49 -140 -66 -256 -203 -293
-344 -20 -78 -19 -120 4 -194 72 -232 331 -258 455 -47 88 151 111 393 51 549
-6 15 1 17 72 17 43 0 103 -7 133 -15 166 -45 207 -42 354 32 l88 44 32 -35
c34 -36 53 -44 121 -48 l40 -3 17 -75 c22 -92 17 -127 -25 -167 -61 -59 -150
-84 -221 -65 -43 12 -63 7 -71 -18 -10 -30 6 -49 49 -62 22 -6 42 -12 44 -13
1 -1 -18 -32 -42 -69 -71 -105 -80 -159 -46 -291 23 -91 26 -162 7 -208 -20
-47 -111 -126 -256 -221 -122 -82 -372 -226 -390 -226 -13 0 -256 136 -335
188 l-68 45 28 20 c69 47 200 193 237 263 20 40 37 77 37 83 0 6 -11 18 -25
27 -32 21 -45 11 -87 -70 -38 -71 -165 -203 -251 -260 -83 -54 -79 -73 33
-147 99 -66 326 -196 388 -224 43 -18 43 -18 90 4 92 44 249 135 374 217 644
424 951 943 838 1421 -64 273 -282 494 -541 549 -98 21 -250 14 -337 -15 -42
-14 -75 -20 -96 -15 -38 7 -121 -30 -162 -71 -49 -49 -13 -135 56 -135 55 0
170 72 170 107 0 19 59 40 150 54 211 30 438 -68 565 -245 243 -340 153 -805
-231 -1205 -80 -83 -83 -85 -84 -56 0 17 -9 64 -20 105 -27 105 -26 166 6 226
31 60 110 143 184 194 94 64 130 120 130 198 0 47 -32 172 -67 258 -30 76 -56
94 -136 94 -64 0 -98 -11 -228 -74 -124 -60 -163 -65 -264 -35 -64 19 -104 24
-198 24 l-117 0 -19 30 c-58 96 -204 212 -318 255 -32 12 -88 24 -124 27 -85
7 -93 -3 -74 -95 25 -117 0 -150 -131 -173 -143 -24 -212 -67 -248 -154 -15
-34 -35 -51 -155 -126 l-63 -40 4 -77 c3 -61 10 -91 36 -147 55 -117 101 -152
277 -214 152 -54 189 -97 188 -216 -1 -73 -29 -176 -50 -182 -6 -2 -59 41
-117 97 -163 158 -260 284 -341 447 -226 456 -74 923 350 1068 71 25 240 25
323 1 54 -16 65 -23 76 -51 16 -38 112 -95 160 -95 58 1 94 53 75 109 -16 46
-108 96 -179 97 -30 1 -80 9 -110 19 -77 23 -248 29 -329 10z m753 -770 c54
-217 -42 -505 -178 -530 -109 -21 -195 88 -184 234 9 126 111 261 249 330 89
44 94 43 113 -34z"/>
<path d="M887 1712 c-22 -25 -21 -45 3 -67 30 -27 74 -10 78 30 6 49 -48 73
-81 37z"/>
<path d="M1890 1631 c-27 -27 -31 -36 -28 -78 3 -44 5 -48 28 -48 22 0 26 5
30 39 7 52 30 67 71 44 43 -25 69 -23 69 5 -1 30 -43 59 -96 65 -38 4 -47 1
-74 -27z"/>
</g>
</svg>
